<mxfile host="app.diagrams.net" modified="2021-01-12T03:36:48.637Z" agent="5.0 (Windows NT 10.0; Win64; x64) AppleWebKit/537.36 (KHTML, like Gecko) Chrome/87.0.4280.88 Safari/537.36" etag="qDJ2VsZjQE5MvO_ORFrb" version="14.1.9" type="github">
  <diagram id="3yu38PfJtg1eQ9jLAf-g" name="Page-1">
    <mxGraphModel dx="1422" dy="794" grid="1" gridSize="10" guides="1" tooltips="1" connect="1" arrows="1" fold="1" page="1" pageScale="1" pageWidth="850" pageHeight="1100" math="0" shadow="0">
      <root>
        <mxCell id="0" />
        <mxCell id="1" parent="0" />
        <mxCell id="sTjJOEjF1SPUGWs-78rF-19" style="edgeStyle=orthogonalEdgeStyle;rounded=0;orthogonalLoop=1;jettySize=auto;html=1;exitX=0.5;exitY=0.5;exitDx=0;exitDy=0;exitPerimeter=0;strokeColor=none;" parent="1" source="sTjJOEjF1SPUGWs-78rF-1" edge="1">
          <mxGeometry relative="1" as="geometry">
            <mxPoint x="400" y="170" as="targetPoint" />
          </mxGeometry>
        </mxCell>
        <mxCell id="sTjJOEjF1SPUGWs-78rF-1" value="Mahasiswa" style="shape=umlActor;verticalLabelPosition=bottom;verticalAlign=top;html=1;fillColor=none;" parent="1" vertex="1">
          <mxGeometry x="50" y="360" width="70" height="130" as="geometry" />
        </mxCell>
        <mxCell id="sTjJOEjF1SPUGWs-78rF-7" value="Dosen 1" style="shape=umlActor;verticalLabelPosition=bottom;verticalAlign=top;html=1;" parent="1" vertex="1">
          <mxGeometry x="730" y="170" width="40" height="80" as="geometry" />
        </mxCell>
        <mxCell id="sTjJOEjF1SPUGWs-78rF-8" value="Dosen 2" style="shape=umlActor;verticalLabelPosition=bottom;verticalAlign=top;html=1;" parent="1" vertex="1">
          <mxGeometry x="730" y="320" width="40" height="80" as="geometry" />
        </mxCell>
        <mxCell id="sTjJOEjF1SPUGWs-78rF-14" value="Rekomdasi" style="ellipse;whiteSpace=wrap;html=1;" parent="1" vertex="1">
          <mxGeometry x="375" y="50" width="140" height="70" as="geometry" />
        </mxCell>
        <mxCell id="sTjJOEjF1SPUGWs-78rF-16" value="" style="rounded=0;whiteSpace=wrap;html=1;strokeColor=#000000;fillColor=none;" parent="1" vertex="1">
          <mxGeometry x="225" y="20" width="440" height="680" as="geometry" />
        </mxCell>
        <mxCell id="sTjJOEjF1SPUGWs-78rF-23" value="" style="endArrow=none;html=1;entryX=0.018;entryY=0.666;entryDx=0;entryDy=0;exitX=0.498;exitY=0.663;exitDx=0;exitDy=0;exitPerimeter=0;entryPerimeter=0;" parent="1" source="sTjJOEjF1SPUGWs-78rF-1" target="sTjJOEjF1SPUGWs-78rF-14" edge="1">
          <mxGeometry relative="1" as="geometry">
            <mxPoint x="80" y="440" as="sourcePoint" />
            <mxPoint x="425" y="455" as="targetPoint" />
          </mxGeometry>
        </mxCell>
        <mxCell id="sTjJOEjF1SPUGWs-78rF-27" value="" style="endArrow=none;html=1;entryX=0.993;entryY=0.666;entryDx=0;entryDy=0;entryPerimeter=0;" parent="1" source="sTjJOEjF1SPUGWs-78rF-7" target="sTjJOEjF1SPUGWs-78rF-14" edge="1">
          <mxGeometry relative="1" as="geometry">
            <mxPoint x="330.0000000000001" y="499.57000000000005" as="sourcePoint" />
            <mxPoint x="622.66" y="169.9999999999999" as="targetPoint" />
          </mxGeometry>
        </mxCell>
        <mxCell id="sTjJOEjF1SPUGWs-78rF-28" value="" style="endArrow=none;html=1;entryX=0.976;entryY=0.716;entryDx=0;entryDy=0;entryPerimeter=0;" parent="1" source="sTjJOEjF1SPUGWs-78rF-8" target="sTjJOEjF1SPUGWs-78rF-14" edge="1">
          <mxGeometry relative="1" as="geometry">
            <mxPoint x="675.98" y="225.46576998050693" as="sourcePoint" />
            <mxPoint x="460" y="139.9999999999999" as="targetPoint" />
          </mxGeometry>
        </mxCell>
        <mxCell id="sTjJOEjF1SPUGWs-78rF-29" value="Petugas" style="shape=umlActor;verticalLabelPosition=bottom;verticalAlign=top;html=1;strokeColor=#000000;fillColor=none;" parent="1" vertex="1">
          <mxGeometry x="730" y="470" width="30" height="60" as="geometry" />
        </mxCell>
        <mxCell id="sTjJOEjF1SPUGWs-78rF-30" value="Mendaftar" style="ellipse;whiteSpace=wrap;html=1;strokeColor=#000000;fillColor=none;" parent="1" vertex="1">
          <mxGeometry x="385" y="130" width="140" height="70" as="geometry" />
        </mxCell>
        <mxCell id="sTjJOEjF1SPUGWs-78rF-31" value="" style="endArrow=none;html=1;" parent="1" target="sTjJOEjF1SPUGWs-78rF-30" edge="1">
          <mxGeometry relative="1" as="geometry">
            <mxPoint x="90" y="440" as="sourcePoint" />
            <mxPoint x="452.65999999999997" y="239.9999999999999" as="targetPoint" />
          </mxGeometry>
        </mxCell>
        <mxCell id="sTjJOEjF1SPUGWs-78rF-32" value="" style="endArrow=none;html=1;exitX=0;exitY=0.3333333333333333;exitDx=0;exitDy=0;exitPerimeter=0;" parent="1" source="sTjJOEjF1SPUGWs-78rF-29" target="sTjJOEjF1SPUGWs-78rF-30" edge="1">
          <mxGeometry relative="1" as="geometry">
            <mxPoint x="160.0000000000001" y="569.57" as="sourcePoint" />
            <mxPoint x="452.65999999999997" y="239.9999999999999" as="targetPoint" />
          </mxGeometry>
        </mxCell>
        <mxCell id="sTjJOEjF1SPUGWs-78rF-33" value="Senimar Proposal" style="ellipse;whiteSpace=wrap;html=1;strokeColor=#000000;fillColor=none;" parent="1" vertex="1">
          <mxGeometry x="375" y="315" width="140" height="70" as="geometry" />
        </mxCell>
        <mxCell id="sTjJOEjF1SPUGWs-78rF-34" value="" style="endArrow=none;html=1;" parent="1" target="sTjJOEjF1SPUGWs-78rF-33" edge="1">
          <mxGeometry relative="1" as="geometry">
            <mxPoint x="90" y="440" as="sourcePoint" />
            <mxPoint x="424.965902832384" y="259.9957880759606" as="targetPoint" />
          </mxGeometry>
        </mxCell>
        <mxCell id="sTjJOEjF1SPUGWs-78rF-35" value="" style="endArrow=none;html=1;" parent="1" target="sTjJOEjF1SPUGWs-78rF-33" edge="1">
          <mxGeometry relative="1" as="geometry">
            <mxPoint x="730" y="340" as="sourcePoint" />
            <mxPoint x="400.79892827924505" y="327.14861070316556" as="targetPoint" />
          </mxGeometry>
        </mxCell>
        <mxCell id="sTjJOEjF1SPUGWs-78rF-36" value="" style="endArrow=none;html=1;entryX=1;entryY=0.5;entryDx=0;entryDy=0;" parent="1" target="sTjJOEjF1SPUGWs-78rF-33" edge="1">
          <mxGeometry relative="1" as="geometry">
            <mxPoint x="730" y="200" as="sourcePoint" />
            <mxPoint x="520" y="280" as="targetPoint" />
          </mxGeometry>
        </mxCell>
        <mxCell id="sTjJOEjF1SPUGWs-78rF-37" value="" style="endArrow=none;html=1;" parent="1" edge="1">
          <mxGeometry relative="1" as="geometry">
            <mxPoint x="730" y="490" as="sourcePoint" />
            <mxPoint x="510" y="370" as="targetPoint" />
          </mxGeometry>
        </mxCell>
        <mxCell id="sTjJOEjF1SPUGWs-78rF-39" value="Penetapkan kelulusan&amp;nbsp;" style="ellipse;whiteSpace=wrap;html=1;strokeColor=#000000;fillColor=none;" parent="1" vertex="1">
          <mxGeometry x="375" y="400" width="140" height="70" as="geometry" />
        </mxCell>
        <mxCell id="sTjJOEjF1SPUGWs-78rF-40" value="" style="endArrow=none;html=1;entryX=1;entryY=0;entryDx=0;entryDy=0;exitX=0;exitY=1;exitDx=0;exitDy=0;exitPerimeter=0;" parent="1" target="sTjJOEjF1SPUGWs-78rF-39" edge="1" source="kJ-O1_iISxgFd8wlPM60-1">
          <mxGeometry relative="1" as="geometry">
            <mxPoint x="730" y="200" as="sourcePoint" />
            <mxPoint x="525" y="305.0000000000002" as="targetPoint" />
          </mxGeometry>
        </mxCell>
        <mxCell id="sTjJOEjF1SPUGWs-78rF-42" value="Menerbitkan kelulusan&amp;nbsp;" style="ellipse;whiteSpace=wrap;html=1;strokeColor=#000000;fillColor=none;" parent="1" vertex="1">
          <mxGeometry x="370" y="490" width="140" height="70" as="geometry" />
        </mxCell>
        <mxCell id="sTjJOEjF1SPUGWs-78rF-43" value="" style="endArrow=none;html=1;entryX=0.983;entryY=0.615;entryDx=0;entryDy=0;entryPerimeter=0;" parent="1" target="sTjJOEjF1SPUGWs-78rF-42" edge="1">
          <mxGeometry relative="1" as="geometry">
            <mxPoint x="720" y="490" as="sourcePoint" />
            <mxPoint x="520.52" y="321.8699999999999" as="targetPoint" />
          </mxGeometry>
        </mxCell>
        <mxCell id="sTjJOEjF1SPUGWs-78rF-44" value="Penjadwal" style="ellipse;whiteSpace=wrap;html=1;strokeColor=#000000;fillColor=none;" parent="1" vertex="1">
          <mxGeometry x="385" y="230" width="120" height="50" as="geometry" />
        </mxCell>
        <mxCell id="sTjJOEjF1SPUGWs-78rF-45" value="" style="endArrow=none;html=1;entryX=1;entryY=0.5;entryDx=0;entryDy=0;" parent="1" target="sTjJOEjF1SPUGWs-78rF-44" edge="1">
          <mxGeometry relative="1" as="geometry">
            <mxPoint x="740" y="499.9999999999998" as="sourcePoint" />
            <mxPoint x="520.52" y="376.8699999999999" as="targetPoint" />
          </mxGeometry>
        </mxCell>
        <mxCell id="kJ-O1_iISxgFd8wlPM60-1" value="Penguji" style="shape=umlActor;verticalLabelPosition=bottom;verticalAlign=top;html=1;" vertex="1" parent="1">
          <mxGeometry x="725" y="40" width="40" height="80" as="geometry" />
        </mxCell>
        <mxCell id="kJ-O1_iISxgFd8wlPM60-3" value="" style="endArrow=none;html=1;entryX=1;entryY=0;entryDx=0;entryDy=0;exitX=0;exitY=1;exitDx=0;exitDy=0;exitPerimeter=0;" edge="1" parent="1" target="sTjJOEjF1SPUGWs-78rF-33">
          <mxGeometry relative="1" as="geometry">
            <mxPoint x="735" y="130" as="sourcePoint" />
            <mxPoint x="504.4974746830583" y="420.25126265847075" as="targetPoint" />
          </mxGeometry>
        </mxCell>
      </root>
    </mxGraphModel>
  </diagram>
</mxfile>
